<?xml version="1.0" standalone="no"?>
<!DOCTYPE svg PUBLIC "-//W3C//DTD SVG 20010904//EN"
 "http://www.w3.org/TR/2001/REC-SVG-20010904/DTD/svg10.dtd">
<svg version="1.0" xmlns="http://www.w3.org/2000/svg"
 width="234.000000pt" height="234.000000pt" viewBox="0 0 234.000000 234.000000"
 preserveAspectRatio="xMidYMid meet">
<metadata>
Created by potrace 1.11, written by Peter Selinger 2001-2013
</metadata>
<g transform="translate(0.000000,234.000000) scale(0.100000,-0.100000)"
fill="#000000" stroke="none">
<path d="M925 2244 c-210 -39 -474 -141 -509 -197 -17 -27 7 -44 43 -30 23 8
14 -4 -43 -61 -298 -294 -434 -777 -320 -1136 13 -41 24 -80 24 -87 0 -6 -22
-33 -50 -60 -47 -46 -50 -51 -50 -100 0 -29 3 -53 8 -53 6 0 43 24 130 86 12
9 24 15 26 13 1 -2 22 -33 46 -68 90 -134 253 -281 406 -367 86 -48 231 -99
327 -114 117 -19 338 -8 457 23 131 34 249 82 351 144 54 32 94 50 106 47 11
-3 33 6 57 25 60 48 88 40 40 -10 -28 -29 -27 -55 1 -66 10 -3 29 6 49 26 29
28 36 31 53 20 11 -7 28 -9 38 -5 14 5 16 14 12 44 -8 50 2 62 47 59 49 -3 69
22 43 51 -16 18 -16 20 3 45 11 14 33 27 48 29 38 4 39 32 3 69 -39 39 -77 37
-74 -2 1 -17 -7 -35 -23 -50 -31 -29 -31 -11 1 52 14 28 23 58 20 68 -3 10 8
48 25 85 54 119 74 222 74 386 0 587 -320 989 -893 1121 -117 28 -365 34 -476
13z m475 -130 c138 -27 299 -122 436 -258 291 -291 389 -650 272 -1000 -88
-264 -251 -473 -447 -575 -217 -113 -482 -132 -750 -55 -248 72 -469 236 -585
433 -46 79 -48 85 -37 121 6 20 11 47 11 58 0 30 -29 55 -55 48 -20 -5 -23 1
-41 77 -27 117 -27 373 0 472 52 189 167 352 346 486 143 107 332 185 510 209
81 11 241 4 340 -16z m-1255 -1176 c8 -36 19 -78 25 -92 5 -14 5 -28 0 -31
-21 -13 -61 172 -59 279 l2 71 8 -80 c5 -44 15 -110 24 -147z m116 -303 c7
-13 3 -12 -10 5 -11 14 -21 30 -21 35 0 11 14 -7 31 -40z m1814 -214 c-9 -9
-23 -11 -41 -7 l-27 7 29 30 28 29 12 -22 c10 -19 10 -26 -1 -37z m-1335 -201
c8 -5 11 -10 5 -10 -5 0 -17 5 -25 10 -8 5 -10 10 -5 10 6 0 17 -5 25 -10z"/>
<path d="M650 1391 c-93 -30 -173 -91 -240 -182 -90 -121 -125 -233 -84 -273
41 -41 80 -8 188 159 75 116 138 174 192 178 31 2 30 4 94 -138 58 -128 99
-165 181 -165 68 0 111 19 208 91 53 39 103 69 116 69 13 0 37 -11 53 -25 17
-14 50 -34 73 -45 81 -36 248 -23 454 37 162 47 199 71 173 117 -12 22 -49 20
-172 -9 -286 -69 -405 -72 -456 -10 -8 9 -31 26 -53 37 -72 36 -136 13 -276
-100 -74 -59 -100 -68 -141 -47 -33 17 -49 44 -75 125 -24 75 -61 141 -92 164
-29 21 -104 30 -143 17z"/>
<path d="M23 890 c0 -30 2 -43 4 -27 2 15 2 39 0 55 -2 15 -4 2 -4 -28z"/>
</g>
</svg>
